<?xml version="1.0" encoding="UTF-8"?>
<!--
  STUB ASSET — replace at Phase 6 with the official Apple-provided SVG from
  developer.apple.com/wallet/add-to-apple-wallet-guidelines/ (FR locale).
  Apple Wallet badge guidelines forbid altering the official artwork; the stub
  below is a placeholder to validate V0 layout + handler wiring.
-->
<svg xmlns="http://www.w3.org/2000/svg" viewBox="0 0 200 56" width="200" height="56" role="img" aria-label="Ajouter à Apple Wallet (placeholder V0 — sera remplacé par l'asset officiel Apple)">
  <rect width="200" height="56" rx="10" ry="10" fill="#0A0A0A"/>
  <text x="22" y="22" fill="#FFFFFF" font-family="-apple-system, system-ui, sans-serif" font-size="9" font-weight="400" letter-spacing="0.05em">Ajouter à</text>
  <g transform="translate(22, 28)">
    <path d="M5.3 7.5C4.5 7.5 3.6 7 3 7c-1.1 0-2.5 0.9-2.5 3 0 2.6 1.7 5 2.5 5 0.5 0 1-0.4 1.7-0.4 0.7 0 1.2 0.4 1.7 0.4 0.8 0 1.8-1.4 2.3-3-0.6-0.3-1.4-1.1-1.4-2.2 0-1.4 0.9-2 1-2.1C7.3 7.4 6.1 7.5 5.3 7.5zM5.6 6.7c0.5-0.5 0.7-1.2 0.6-1.7C5.6 5 5 5.4 4.7 5.8c-0.4 0.4-0.6 1-0.5 1.5C4.7 7.5 5.3 7.2 5.6 6.7z" fill="#FFFFFF"/>
  </g>
  <text x="44" y="40" fill="#FFFFFF" font-family="-apple-system, system-ui, sans-serif" font-size="16" font-weight="500">Apple Wallet</text>
</svg>
